<svg width="227" height="50" viewBox="0 0 227 50" fill="none" xmlns="http://www.w3.org/2000/svg">
<path d="M43.2091 0H6.69437C2.99717 0 0 3.00297 0 6.70732V43.2927C0 46.997 2.99717 50 6.69437 50H43.2091C46.9063 50 49.9035 46.997 49.9035 43.2927V6.70732C49.9035 3.00297 46.9063 0 43.2091 0Z" fill="#3B82F6"/>
<path d="M28.9794 7.40165C37.2877 7.40171 39.5686 11.4826 39.6705 13.523C37.0665 18.9782 31.959 21.236 29.5131 21.7428L29.2849 21.7863H23.1754C18.7892 21.7863 15.2338 25.349 15.2335 29.7435C15.2335 32.4358 16.568 34.816 18.6104 36.2561C19.0202 36.2786 19.5095 35.9699 19.5096 34.6412H24.3973V37.7013C25.0082 37.8033 26.2301 37.8237 26.2301 37.0891V30.0501C26.2301 29.8461 26.1079 29.438 25.6192 29.438V27.6016H32.3396V36.7831C33.2707 37.4258 33.7414 37.4057 34.4774 36.7831V24.4593C34.4731 24.2092 34.2651 23.9352 33.8664 23.9288V22.7045H39.976V36.7831C39.9725 41.1996 38.735 42.4263 34.4774 42.5984H23.1754L23.1747 42.5972C16.0895 42.5968 10.3458 36.8425 10.3458 29.7435C10.3461 22.6445 16.09 16.8892 23.1754 16.8891H29.2849C30.9952 16.889 31.2196 14.2371 31.1177 12.9109H28.9794V7.40165Z" fill="white"/>
<path d="M70.5258 35.6465C69.2746 35.6465 68.1542 35.3243 67.1652 34.6799C66.1763 34.0355 65.3949 33.1001 64.8204 31.8736C64.2465 30.6472 63.9598 29.1574 63.9598 27.4044C63.9598 25.6306 64.2501 24.1338 64.8307 22.9143C65.4186 21.6879 66.2104 20.7629 67.2066 20.1393C68.2022 19.5087 69.3123 19.1935 70.5361 19.1935C71.4703 19.1935 72.2377 19.3528 72.8396 19.6716C73.4409 19.9834 73.918 20.361 74.271 20.8045C74.6234 21.241 74.8966 21.6533 75.0901 22.0413H75.2459V14.0798H79.0118V35.3659H75.3184V32.8506H75.0901C74.8966 33.2387 74.6167 33.6509 74.2503 34.0874C73.8833 34.5171 73.3995 34.8843 72.7976 35.1892C72.1963 35.494 71.4387 35.6465 70.5258 35.6465ZM71.5738 32.5596C72.3692 32.5596 73.0465 32.3448 73.607 31.9152C74.1669 31.4787 74.5923 30.8724 74.8826 30.0963C75.1735 29.3202 75.3184 28.416 75.3184 27.3836C75.3184 26.3512 75.1735 25.4538 74.8826 24.6917C74.5996 23.9295 74.1773 23.337 73.6174 22.9143C73.0642 22.4917 72.3832 22.2804 71.5738 22.2804C70.737 22.2804 70.0383 22.4986 69.4784 22.9351C68.9179 23.3717 68.4962 23.9745 68.2126 24.7436C67.929 25.5127 67.7872 26.3927 67.7872 27.3836C67.7872 28.3814 67.929 29.2718 68.2126 30.0548C68.5035 30.8308 68.9283 31.444 69.4888 31.8944C70.056 32.3379 70.751 32.5596 71.5738 32.5596ZM83.0132 35.3659V19.4013H86.7682V35.3659H83.0132ZM84.901 17.1356C84.3065 17.1356 83.7946 16.9381 83.3656 16.5431C82.9372 16.1412 82.7229 15.6596 82.7229 15.0984C82.7229 14.5302 82.9372 14.0487 83.3656 13.6537C83.7946 13.2518 84.3065 13.0509 84.901 13.0509C85.5029 13.0509 86.0147 13.2518 86.4365 13.6537C86.8649 14.0487 87.0798 14.5302 87.0798 15.0984C87.0798 15.6596 86.8649 16.1412 86.4365 16.5431C86.0147 16.9381 85.5029 17.1356 84.901 17.1356ZM90.6296 35.3659V19.4013H94.2707V22.0621H94.4369C94.7272 21.1406 95.2256 20.4303 95.9309 19.9314C96.643 19.4256 97.4554 19.1727 98.3683 19.1727C98.5758 19.1727 98.8077 19.1831 99.0633 19.2038C99.3262 19.2177 99.5441 19.242 99.7169 19.2766V22.7377C99.5581 22.6823 99.3055 22.6337 98.9598 22.5921C98.6208 22.5437 98.2922 22.5194 97.9745 22.5194C97.2899 22.5194 96.674 22.6684 96.1281 22.9663C95.5883 23.2573 95.1629 23.6627 94.8519 24.1824C94.5409 24.7021 94.3851 25.3014 94.3851 25.9805V35.3659H90.6296ZM108.609 35.6777C107.012 35.6777 105.632 35.3451 104.471 34.6799C103.316 34.0077 102.427 33.0585 101.805 31.832C101.182 30.5987 100.871 29.147 100.871 27.4771C100.871 25.8349 101.182 24.3937 101.805 23.1534C102.434 21.9062 103.312 20.9361 104.439 20.2432C105.567 19.5434 106.891 19.1935 108.413 19.1935C109.395 19.1935 110.321 19.3528 111.193 19.6716C112.071 19.9834 112.846 20.4684 113.516 21.1267C114.194 21.7849 114.727 22.6234 115.114 23.6419C115.501 24.6535 115.695 25.8592 115.695 27.2588V28.4126H102.634V25.8765H112.095C112.088 25.1559 111.933 24.5149 111.629 23.9537C111.324 23.3856 110.899 22.9386 110.352 22.6129C109.813 22.2873 109.184 22.1245 108.465 22.1245C107.697 22.1245 107.023 22.3115 106.442 22.6857C105.86 23.0529 105.408 23.538 105.083 24.1408C104.764 24.7367 104.602 25.3915 104.595 26.1052V28.319C104.595 29.2475 104.764 30.0443 105.103 30.7095C105.442 31.3678 105.916 31.8736 106.524 32.227C107.133 32.5735 107.846 32.7466 108.662 32.7466C109.208 32.7466 109.702 32.6704 110.145 32.518C110.587 32.3587 110.971 32.1265 111.296 31.8216C111.621 31.5168 111.867 31.1391 112.033 30.6887L115.539 31.0837C115.318 32.0122 114.896 32.8229 114.273 33.5158C113.658 34.2018 112.87 34.7353 111.909 35.1164C110.947 35.4906 109.848 35.6777 108.609 35.6777ZM122.295 30.3562L122.285 25.8142H122.886L128.612 19.4013H133.001L125.957 27.2588H125.179L122.295 30.3562ZM118.872 35.3659V14.0798H122.627V35.3659H118.872ZM128.872 35.3659L123.685 28.1007L126.216 25.4504L133.363 35.3659H128.872ZM140.088 35.6881C139.079 35.6881 138.169 35.5079 137.36 35.1476C136.558 34.7804 135.921 34.2399 135.451 33.5262C134.988 32.8125 134.756 31.9325 134.756 30.8862C134.756 29.9854 134.922 29.2406 135.254 28.6516C135.586 28.0626 136.039 27.5915 136.613 27.2381C137.187 26.8847 137.833 26.6179 138.553 26.4378C139.279 26.2507 140.029 26.1156 140.804 26.0324C141.737 25.9354 142.495 25.8488 143.076 25.7726C143.657 25.6895 144.079 25.5647 144.342 25.3984C144.611 25.2252 144.746 24.9584 144.746 24.5981V24.5357C144.746 23.7527 144.514 23.1465 144.051 22.7169C143.588 22.2873 142.92 22.0725 142.049 22.0725C141.129 22.0725 140.399 22.2734 139.86 22.6753C139.327 23.0772 138.968 23.5518 138.781 24.0992L135.275 23.6003C135.551 22.6302 136.008 21.8196 136.644 21.1682C137.28 20.51 138.059 20.018 138.978 19.6924C139.898 19.3598 140.915 19.1935 142.028 19.1935C142.796 19.1935 143.56 19.2835 144.32 19.4637C145.081 19.6438 145.777 19.9418 146.406 20.3576C147.035 20.7663 147.54 21.3242 147.92 22.0309C148.308 22.7377 148.501 23.6211 148.501 24.6813V35.3659H144.891V33.1728H144.766C144.538 33.6163 144.217 34.032 143.802 34.4201C143.394 34.8012 142.879 35.1095 142.256 35.3451C141.641 35.5737 140.918 35.6881 140.088 35.6881ZM141.063 32.9234C141.817 32.9234 142.471 32.7744 143.024 32.4765C143.577 32.1716 144.003 31.7697 144.3 31.2708C144.604 30.7719 144.756 30.228 144.756 29.639V27.7577C144.639 27.8548 144.438 27.9448 144.155 28.028C143.878 28.1112 143.567 28.1839 143.221 28.2463C142.875 28.3086 142.533 28.364 142.194 28.4126C141.855 28.461 141.561 28.5026 141.312 28.5373C140.752 28.6135 140.251 28.7382 139.808 28.9115C139.365 29.0847 139.016 29.3272 138.76 29.639C138.505 29.9439 138.376 30.3388 138.376 30.8238C138.376 31.5168 138.629 32.0399 139.134 32.3933C139.638 32.7467 140.282 32.9234 141.063 32.9234ZM152.277 41.3526V19.4013H155.97V22.0413H156.188C156.382 21.6533 156.655 21.241 157.007 20.8045C157.36 20.361 157.837 19.9834 158.439 19.6716C159.041 19.3528 159.808 19.1935 160.742 19.1935C161.973 19.1935 163.083 19.5087 164.072 20.1393C165.067 20.7629 165.856 21.6879 166.437 22.9143C167.025 24.1338 167.318 25.6306 167.318 27.4044C167.318 29.1574 167.032 30.6472 166.457 31.8736C165.883 33.1001 165.102 34.0355 164.113 34.6799C163.124 35.3243 162.004 35.6465 160.752 35.6465C159.839 35.6465 159.082 35.494 158.481 35.1892C157.879 34.8843 157.394 34.5171 157.028 34.0874C156.668 33.6509 156.388 33.2387 156.188 32.8506H156.032V41.3526H152.277ZM155.959 27.3836C155.959 28.416 156.105 29.3202 156.395 30.0963C156.693 30.8724 157.118 31.4787 157.671 31.9152C158.231 32.3448 158.909 32.5596 159.705 32.5596C160.535 32.5596 161.23 32.3379 161.79 31.8944C162.349 31.444 162.772 30.8308 163.055 30.0548C163.346 29.2718 163.491 28.3814 163.491 27.3836C163.491 26.3927 163.349 25.5127 163.066 24.7436C162.782 23.9745 162.36 23.3717 161.8 22.9351C161.24 22.4986 160.541 22.2804 159.705 22.2804C158.902 22.2804 158.221 22.4917 157.661 22.9143C157.1 23.337 156.676 23.9295 156.385 24.6917C156.101 25.4538 155.959 26.3512 155.959 27.3836ZM170.534 35.3659V19.4013H174.29V35.3659H170.534ZM172.423 17.1356C171.827 17.1356 171.316 16.9381 170.887 16.5431C170.458 16.1412 170.244 15.6596 170.244 15.0984C170.244 14.5302 170.458 14.0487 170.887 13.6537C171.316 13.2518 171.827 13.0509 172.423 13.0509C173.024 13.0509 173.536 13.2518 173.957 13.6537C174.387 14.0487 174.601 14.5302 174.601 15.0984C174.601 15.6596 174.387 16.1412 173.957 16.5431C173.536 16.9381 173.024 17.1356 172.423 17.1356ZM181.906 26.0117V35.3659H178.151V19.4013H181.741V22.114H181.927C182.294 21.2202 182.878 20.51 183.68 19.9834C184.49 19.4568 185.489 19.1935 186.678 19.1935C187.778 19.1935 188.736 19.429 189.552 19.9002C190.374 20.3714 191.011 21.0539 191.46 21.9477C191.917 22.8416 192.142 23.926 192.134 25.2009V35.3659H188.38V25.783C188.38 24.7159 188.103 23.881 187.549 23.2781C187.003 22.6753 186.246 22.3739 185.278 22.3739C184.621 22.3739 184.036 22.5194 183.524 22.8104C183.02 23.0945 182.622 23.5068 182.331 24.0473C182.048 24.5877 181.906 25.2425 181.906 26.0117ZM198.265 35.5945C197.636 35.5945 197.097 35.3728 196.647 34.9293C196.197 34.4859 195.976 33.9454 195.983 33.3079C195.976 32.6843 196.197 32.1508 196.647 31.7073C197.097 31.2638 197.636 31.0421 198.265 31.0421C198.874 31.0421 199.403 31.2638 199.852 31.7073C200.309 32.1508 200.541 32.6843 200.547 33.3079C200.541 33.7306 200.43 34.1152 200.216 34.4616C200.008 34.8081 199.731 35.0852 199.386 35.2931C199.047 35.494 198.674 35.5945 198.265 35.5945ZM209.01 35.6881C208 35.6881 207.091 35.5079 206.282 35.1476C205.479 34.7804 204.843 34.2399 204.373 33.5262C203.909 32.8125 203.678 31.9325 203.678 30.8862C203.678 29.9854 203.844 29.2406 204.176 28.6516C204.508 28.0626 204.961 27.5915 205.535 27.2381C206.109 26.8847 206.755 26.6179 207.474 26.4378C208.2 26.2507 208.951 26.1156 209.725 26.0324C210.659 25.9354 211.416 25.8488 211.997 25.7726C212.578 25.6895 213 25.5647 213.263 25.3984C213.533 25.2252 213.667 24.9584 213.667 24.5981V24.5357C213.667 23.7527 213.436 23.1465 212.972 22.7169C212.509 22.2873 211.842 22.0725 210.971 22.0725C210.05 22.0725 209.321 22.2734 208.782 22.6753C208.249 23.0772 207.889 23.5518 207.703 24.0992L204.197 23.6003C204.473 22.6302 204.929 21.8196 205.566 21.1682C206.202 20.51 206.98 20.018 207.9 19.6924C208.819 19.3598 209.836 19.1935 210.949 19.1935C211.717 19.1935 212.481 19.2835 213.242 19.4637C214.003 19.6438 214.698 19.9418 215.327 20.3576C215.957 20.7663 216.461 21.3242 216.842 22.0309C217.229 22.7377 217.423 23.6211 217.423 24.6813V35.3659H213.813V33.1728H213.688C213.46 33.6163 213.138 34.032 212.723 34.4201C212.316 34.8012 211.8 35.1095 211.178 35.3451C210.562 35.5737 209.84 35.6881 209.01 35.6881ZM209.985 32.9234C210.739 32.9234 211.392 32.7744 211.946 32.4765C212.499 32.1716 212.924 31.7697 213.221 31.2708C213.525 30.7719 213.678 30.228 213.678 29.639V27.7577C213.56 27.8548 213.36 27.9448 213.076 28.028C212.799 28.1112 212.488 28.1839 212.143 28.2463C211.796 28.3086 211.454 28.364 211.115 28.4126C210.776 28.461 210.483 28.5026 210.234 28.5373C209.674 28.6135 209.172 28.7382 208.73 28.9115C208.287 29.0847 207.938 29.3272 207.682 29.639C207.426 29.9439 207.298 30.3388 207.298 30.8238C207.298 31.5168 207.55 32.0399 208.056 32.3933C208.56 32.7467 209.203 32.9234 209.985 32.9234ZM221.198 35.3659V19.4013H224.954V35.3659H221.198ZM223.087 17.1356C222.492 17.1356 221.98 16.9381 221.551 16.5431C221.122 16.1412 220.908 15.6596 220.908 15.0984C220.908 14.5302 221.122 14.0487 221.551 13.6537C221.98 13.2518 222.492 13.0509 223.087 13.0509C223.688 13.0509 224.2 13.2518 224.622 13.6537C225.051 14.0487 225.265 14.5302 225.265 15.0984C225.265 15.6596 225.051 16.1412 224.622 16.5431C224.2 16.9381 223.688 17.1356 223.087 17.1356Z" fill="black"/>
</svg>
